<?xml version="1.0" encoding="UTF-8"?>
<!DOCTYPE svg PUBLIC "-//W3C//DTD SVG 1.1//EN" "http://www.w3.org/Graphics/SVG/1.1/DTD/svg11.dtd">
<svg width="224mm" height="149mm" viewBox="0 0 22400 14900" version="1.1" xmlns="http://www.w3.org/2000/svg" stroke-width="28.222" stroke-linejoin="round" xml:space="preserve">
 <path fill="rgb(255,255,255)" stroke="none" d="M 11206,14901 L 0,14901 0,0 22412,0 22412,14901 11206,14901 Z"/>
 <path fill="none" stroke="rgb(179,179,179)" stroke-linejoin="round" d="M 9763,13502 L 2954,13502 2954,471 16572,471 16572,13502 9763,13502 Z"/>
 <path fill="none" stroke="rgb(179,179,179)" stroke-linejoin="round" d="M 16572,13501 L 2954,13501"/>
 <path fill="none" stroke="rgb(179,179,179)" stroke-linejoin="round" d="M 16572,11639 L 2954,11639"/>
 <path fill="none" stroke="rgb(179,179,179)" stroke-linejoin="round" d="M 16572,9777 L 2954,9777"/>
 <path fill="none" stroke="rgb(179,179,179)" stroke-linejoin="round" d="M 16572,7915 L 2954,7915"/>
 <path fill="none" stroke="rgb(179,179,179)" stroke-linejoin="round" d="M 16572,6055 L 2954,6055"/>
 <path fill="none" stroke="rgb(179,179,179)" stroke-linejoin="round" d="M 16572,4193 L 2954,4193"/>
 <path fill="none" stroke="rgb(179,179,179)" stroke-linejoin="round" d="M 16572,2331 L 2954,2331"/>
 <path fill="none" stroke="rgb(179,179,179)" stroke-linejoin="round" d="M 16572,470 L 2954,470"/>
 <path fill="none" stroke="rgb(179,179,179)" stroke-linejoin="round" d="M 2954,13651 L 2954,13501"/>
 <path fill="none" stroke="rgb(179,179,179)" stroke-linejoin="round" d="M 2954,13651 L 2954,13501"/>
 <path fill="none" stroke="rgb(179,179,179)" stroke-linejoin="round" d="M 7493,13651 L 7493,13501"/>
 <path fill="none" stroke="rgb(179,179,179)" stroke-linejoin="round" d="M 7493,13651 L 7493,13501"/>
 <path fill="none" stroke="rgb(179,179,179)" stroke-linejoin="round" d="M 12032,13651 L 12032,13501"/>
 <path fill="none" stroke="rgb(179,179,179)" stroke-linejoin="round" d="M 12032,13651 L 12032,13501"/>
 <path fill="none" stroke="rgb(179,179,179)" stroke-linejoin="round" d="M 16572,13651 L 16572,13501"/>
 <path fill="none" stroke="rgb(179,179,179)" stroke-linejoin="round" d="M 16572,13651 L 16572,13501"/>
 <path fill="none" stroke="rgb(179,179,179)" stroke-linejoin="round" d="M 2954,13501 L 16572,13501"/>
 <path fill="none" stroke="rgb(179,179,179)" stroke-linejoin="round" d="M 2804,13501 L 2954,13501"/>
 <path fill="none" stroke="rgb(179,179,179)" stroke-linejoin="round" d="M 2804,13501 L 2954,13501"/>
 <path fill="none" stroke="rgb(179,179,179)" stroke-linejoin="round" d="M 2804,11639 L 2954,11639"/>
 <path fill="none" stroke="rgb(179,179,179)" stroke-linejoin="round" d="M 2804,11639 L 2954,11639"/>
 <path fill="none" stroke="rgb(179,179,179)" stroke-linejoin="round" d="M 2804,9777 L 2954,9777"/>
 <path fill="none" stroke="rgb(179,179,179)" stroke-linejoin="round" d="M 2804,9777 L 2954,9777"/>
 <path fill="none" stroke="rgb(179,179,179)" stroke-linejoin="round" d="M 2804,7915 L 2954,7915"/>
 <path fill="none" stroke="rgb(179,179,179)" stroke-linejoin="round" d="M 2804,7915 L 2954,7915"/>
 <path fill="none" stroke="rgb(179,179,179)" stroke-linejoin="round" d="M 2804,6055 L 2954,6055"/>
 <path fill="none" stroke="rgb(179,179,179)" stroke-linejoin="round" d="M 2804,6055 L 2954,6055"/>
 <path fill="none" stroke="rgb(179,179,179)" stroke-linejoin="round" d="M 2804,4193 L 2954,4193"/>
 <path fill="none" stroke="rgb(179,179,179)" stroke-linejoin="round" d="M 2804,4193 L 2954,4193"/>
 <path fill="none" stroke="rgb(179,179,179)" stroke-linejoin="round" d="M 2804,2331 L 2954,2331"/>
 <path fill="none" stroke="rgb(179,179,179)" stroke-linejoin="round" d="M 2804,2331 L 2954,2331"/>
 <path fill="none" stroke="rgb(179,179,179)" stroke-linejoin="round" d="M 2804,470 L 2954,470"/>
 <path fill="none" stroke="rgb(179,179,179)" stroke-linejoin="round" d="M 2804,470 L 2954,470"/>
 <path fill="none" stroke="rgb(179,179,179)" stroke-linejoin="round" d="M 2954,13501 L 2954,470"/>
 <path fill="none" stroke="rgb(0,132,209)" stroke-width="80" stroke-linejoin="round" d="M 2954,13492 L 7493,13431 12032,12727 16572,1778"/>
 <path fill="rgb(0,132,209)" stroke="none" d="M 2829,13617 L 3079,13617 2829,13367 3079,13367 2829,13617 Z"/>
 <path fill="none" stroke="rgb(0,132,209)" stroke-linejoin="round" d="M 2829,13617 L 3079,13617 2829,13367 3079,13367 2829,13617 Z"/>
 <path fill="rgb(0,132,209)" stroke="none" d="M 7368,13556 L 7618,13556 7368,13306 7618,13306 7368,13556 Z"/>
 <path fill="none" stroke="rgb(0,132,209)" stroke-linejoin="round" d="M 7368,13556 L 7618,13556 7368,13306 7618,13306 7368,13556 Z"/>
 <path fill="rgb(0,132,209)" stroke="none" d="M 11907,12852 L 12157,12852 11907,12602 12157,12602 11907,12852 Z"/>
 <path fill="none" stroke="rgb(0,132,209)" stroke-linejoin="round" d="M 11907,12852 L 12157,12852 11907,12602 12157,12602 11907,12852 Z"/>
 <path fill="rgb(0,132,209)" stroke="none" d="M 16447,1903 L 16697,1903 16447,1653 16697,1653 16447,1903 Z"/>
 <path fill="none" stroke="rgb(0,132,209)" stroke-linejoin="round" d="M 16447,1903 L 16697,1903 16447,1653 16697,1653 16447,1903 Z"/>
 <path fill="none" stroke="rgb(131,202,255)" stroke-width="80" stroke-linejoin="round" d="M 2954,13497 L 7493,13451 12032,12678 16572,1774"/>
 <path fill="rgb(131,202,255)" stroke="none" d="M 2829,13497 L 2954,13622 3079,13497 2954,13372 2829,13497 Z"/>
 <path fill="none" stroke="rgb(131,202,255)" stroke-linejoin="round" d="M 2829,13497 L 2954,13622 3079,13497 2954,13372 2829,13497 Z"/>
 <path fill="rgb(131,202,255)" stroke="none" d="M 7368,13451 L 7493,13576 7618,13451 7493,13326 7368,13451 Z"/>
 <path fill="none" stroke="rgb(131,202,255)" stroke-linejoin="round" d="M 7368,13451 L 7493,13576 7618,13451 7493,13326 7368,13451 Z"/>
 <path fill="rgb(131,202,255)" stroke="none" d="M 11907,12678 L 12032,12803 12157,12678 12032,12553 11907,12678 Z"/>
 <path fill="none" stroke="rgb(131,202,255)" stroke-linejoin="round" d="M 11907,12678 L 12032,12803 12157,12678 12032,12553 11907,12678 Z"/>
 <path fill="rgb(131,202,255)" stroke="none" d="M 16447,1774 L 16572,1899 16697,1774 16572,1649 16447,1774 Z"/>
 <path fill="none" stroke="rgb(131,202,255)" stroke-linejoin="round" d="M 16447,1774 L 16572,1899 16697,1774 16572,1649 16447,1774 Z"/>
 <path fill="none" stroke="rgb(49,64,4)" stroke-width="80" stroke-linejoin="round" d="M 2954,13492 L 7493,13434 12032,12726 16572,2541"/>
 <path fill="rgb(49,64,4)" stroke="none" d="M 2829,13367 L 2829,13617 3079,13367 3079,13617 2829,13367 Z"/>
 <path fill="none" stroke="rgb(49,64,4)" stroke-linejoin="round" d="M 2829,13367 L 2829,13617 3079,13367 3079,13617 2829,13367 Z"/>
 <path fill="rgb(49,64,4)" stroke="none" d="M 7368,13309 L 7368,13559 7618,13309 7618,13559 7368,13309 Z"/>
 <path fill="none" stroke="rgb(49,64,4)" stroke-linejoin="round" d="M 7368,13309 L 7368,13559 7618,13309 7618,13559 7368,13309 Z"/>
 <path fill="rgb(49,64,4)" stroke="none" d="M 11907,12601 L 11907,12851 12157,12601 12157,12851 11907,12601 Z"/>
 <path fill="none" stroke="rgb(49,64,4)" stroke-linejoin="round" d="M 11907,12601 L 11907,12851 12157,12601 12157,12851 11907,12601 Z"/>
 <path fill="rgb(49,64,4)" stroke="none" d="M 16447,2416 L 16447,2666 16697,2416 16697,2666 16447,2416 Z"/>
 <path fill="none" stroke="rgb(49,64,4)" stroke-linejoin="round" d="M 16447,2416 L 16447,2666 16697,2416 16697,2666 16447,2416 Z"/>
 <path fill="none" stroke="rgb(75,31,111)" stroke-width="80" stroke-linejoin="round" d="M 2954,13498 L 7493,13451 12032,12683 16572,3091"/>
 <path fill="rgb(75,31,111)" stroke="none" d="M 2829,13373 L 2829,13623 3079,13498 2829,13373 Z"/>
 <path fill="none" stroke="rgb(75,31,111)" stroke-linejoin="round" d="M 2829,13373 L 2829,13623 3079,13498 2829,13373 Z"/>
 <path fill="rgb(75,31,111)" stroke="none" d="M 7368,13326 L 7368,13576 7618,13451 7368,13326 Z"/>
 <path fill="none" stroke="rgb(75,31,111)" stroke-linejoin="round" d="M 7368,13326 L 7368,13576 7618,13451 7368,13326 Z"/>
 <path fill="rgb(75,31,111)" stroke="none" d="M 11907,12558 L 11907,12808 12157,12683 11907,12558 Z"/>
 <path fill="none" stroke="rgb(75,31,111)" stroke-linejoin="round" d="M 11907,12558 L 11907,12808 12157,12683 11907,12558 Z"/>
 <path fill="rgb(75,31,111)" stroke="none" d="M 16447,2966 L 16447,3216 16697,3091 16447,2966 Z"/>
 <path fill="none" stroke="rgb(75,31,111)" stroke-linejoin="round" d="M 16447,2966 L 16447,3216 16697,3091 16447,2966 Z"/>
 <path fill="none" stroke="rgb(197,0,11)" stroke-width="80" stroke-linejoin="round" d="M 2954,13496 L 7493,13467 12032,13195 16572,8824"/>
 <path fill="rgb(197,0,11)" stroke="none" d="M 2829,13371 L 2954,13621 3079,13371 2829,13371 Z"/>
 <path fill="none" stroke="rgb(197,0,11)" stroke-linejoin="round" d="M 2829,13371 L 2954,13621 3079,13371 2829,13371 Z"/>
 <path fill="rgb(197,0,11)" stroke="none" d="M 7368,13342 L 7493,13592 7618,13342 7368,13342 Z"/>
 <path fill="none" stroke="rgb(197,0,11)" stroke-linejoin="round" d="M 7368,13342 L 7493,13592 7618,13342 7368,13342 Z"/>
 <path fill="rgb(197,0,11)" stroke="none" d="M 11907,13070 L 12032,13320 12157,13070 11907,13070 Z"/>
 <path fill="none" stroke="rgb(197,0,11)" stroke-linejoin="round" d="M 11907,13070 L 12032,13320 12157,13070 11907,13070 Z"/>
 <path fill="rgb(197,0,11)" stroke="none" d="M 16447,8699 L 16572,8949 16697,8699 16447,8699 Z"/>
 <path fill="none" stroke="rgb(197,0,11)" stroke-linejoin="round" d="M 16447,8699 L 16572,8949 16697,8699 16447,8699 Z"/>
 <path fill="none" stroke="rgb(0,69,134)" stroke-width="80" stroke-linejoin="round" d="M 2954,13498 L 7493,13480 12032,13134 16572,9281"/>
 <path fill="rgb(0,69,134)" stroke="none" d="M 2829,13373 L 2829,13623 3079,13623 3079,13373 2829,13373 Z"/>
 <path fill="none" stroke="rgb(0,69,134)" stroke-linejoin="round" d="M 2829,13373 L 2829,13623 3079,13623 3079,13373 2829,13373 Z"/>
 <path fill="rgb(0,69,134)" stroke="none" d="M 7368,13355 L 7368,13605 7618,13605 7618,13355 7368,13355 Z"/>
 <path fill="none" stroke="rgb(0,69,134)" stroke-linejoin="round" d="M 7368,13355 L 7368,13605 7618,13605 7618,13355 7368,13355 Z"/>
 <path fill="rgb(0,69,134)" stroke="none" d="M 11907,13009 L 11907,13259 12157,13259 12157,13009 11907,13009 Z"/>
 <path fill="none" stroke="rgb(0,69,134)" stroke-linejoin="round" d="M 11907,13009 L 11907,13259 12157,13259 12157,13009 11907,13009 Z"/>
 <path fill="rgb(0,69,134)" stroke="none" d="M 16447,9156 L 16447,9406 16697,9406 16697,9156 16447,9156 Z"/>
 <path fill="none" stroke="rgb(0,69,134)" stroke-linejoin="round" d="M 16447,9156 L 16447,9406 16697,9406 16697,9156 16447,9156 Z"/>
 <path fill="none" stroke="rgb(87,157,28)" stroke-width="80" stroke-linejoin="round" d="M 2954,13498 L 7493,13481 12032,13137 16572,9292"/>
 <path fill="rgb(87,157,28)" stroke="none" d="M 2829,13623 L 3079,13623 2954,13373 2829,13623 Z"/>
 <path fill="none" stroke="rgb(87,157,28)" stroke-linejoin="round" d="M 2829,13623 L 3079,13623 2954,13373 2829,13623 Z"/>
 <path fill="rgb(87,157,28)" stroke="none" d="M 7368,13606 L 7618,13606 7493,13356 7368,13606 Z"/>
 <path fill="none" stroke="rgb(87,157,28)" stroke-linejoin="round" d="M 7368,13606 L 7618,13606 7493,13356 7368,13606 Z"/>
 <path fill="rgb(87,157,28)" stroke="none" d="M 11907,13262 L 12157,13262 12032,13012 11907,13262 Z"/>
 <path fill="none" stroke="rgb(87,157,28)" stroke-linejoin="round" d="M 11907,13262 L 12157,13262 12032,13012 11907,13262 Z"/>
 <path fill="rgb(87,157,28)" stroke="none" d="M 16447,9417 L 16697,9417 16572,9167 16447,9417 Z"/>
 <path fill="none" stroke="rgb(87,157,28)" stroke-linejoin="round" d="M 16447,9417 L 16697,9417 16572,9167 16447,9417 Z"/>
 <path fill="none" stroke="rgb(255,66,14)" stroke-width="80" stroke-linejoin="round" d="M 2954,13496 L 7493,13467 12032,13199 16572,10205"/>
 <path fill="rgb(255,66,14)" stroke="none" d="M 2829,13496 L 3079,13621 3079,13371 2829,13496 Z"/>
 <path fill="none" stroke="rgb(255,66,14)" stroke-linejoin="round" d="M 2829,13496 L 3079,13621 3079,13371 2829,13496 Z"/>
 <path fill="rgb(255,66,14)" stroke="none" d="M 7368,13467 L 7618,13592 7618,13342 7368,13467 Z"/>
 <path fill="none" stroke="rgb(255,66,14)" stroke-linejoin="round" d="M 7368,13467 L 7618,13592 7618,13342 7368,13467 Z"/>
 <path fill="rgb(255,66,14)" stroke="none" d="M 11907,13199 L 12157,13324 12157,13074 11907,13199 Z"/>
 <path fill="none" stroke="rgb(255,66,14)" stroke-linejoin="round" d="M 11907,13199 L 12157,13324 12157,13074 11907,13199 Z"/>
 <path fill="rgb(255,66,14)" stroke="none" d="M 16447,10205 L 16697,10330 16697,10080 16447,10205 Z"/>
 <path fill="none" stroke="rgb(255,66,14)" stroke-linejoin="round" d="M 16447,10205 L 16697,10330 16697,10080 16447,10205 Z"/>
 <text class="TextShape"><tspan class="TextParagraph" font-family="Liberation Sans, sans-serif" font-size="353px" font-weight="400"><tspan class="TextPosition" x="2519" y="13621"><tspan fill="rgb(0,0,0)" stroke="none">0</tspan></tspan></tspan></text>
 <text class="TextShape"><tspan class="TextParagraph" font-family="Liberation Sans, sans-serif" font-size="353px" font-weight="400"><tspan class="TextPosition" x="1408" y="11759"><tspan fill="rgb(0,0,0)" stroke="none">1000000</tspan></tspan></tspan></text>
 <text class="TextShape"><tspan class="TextParagraph" font-family="Liberation Sans, sans-serif" font-size="353px" font-weight="400"><tspan class="TextPosition" x="1408" y="9897"><tspan fill="rgb(0,0,0)" stroke="none">2000000</tspan></tspan></tspan></text>
 <text class="TextShape"><tspan class="TextParagraph" font-family="Liberation Sans, sans-serif" font-size="353px" font-weight="400"><tspan class="TextPosition" x="1408" y="8035"><tspan fill="rgb(0,0,0)" stroke="none">3000000</tspan></tspan></tspan></text>
 <text class="TextShape"><tspan class="TextParagraph" font-family="Liberation Sans, sans-serif" font-size="353px" font-weight="400"><tspan class="TextPosition" x="1408" y="6174"><tspan fill="rgb(0,0,0)" stroke="none">4000000</tspan></tspan></tspan></text>
 <text class="TextShape"><tspan class="TextParagraph" font-family="Liberation Sans, sans-serif" font-size="353px" font-weight="400"><tspan class="TextPosition" x="1408" y="4312"><tspan fill="rgb(0,0,0)" stroke="none">5000000</tspan></tspan></tspan></text>
 <text class="TextShape"><tspan class="TextParagraph" font-family="Liberation Sans, sans-serif" font-size="353px" font-weight="400"><tspan class="TextPosition" x="1408" y="2450"><tspan fill="rgb(0,0,0)" stroke="none">6000000</tspan></tspan></tspan></text>
 <text class="TextShape"><tspan class="TextParagraph" font-family="Liberation Sans, sans-serif" font-size="353px" font-weight="400"><tspan class="TextPosition" x="1408" y="589"><tspan fill="rgb(0,0,0)" stroke="none">7000000</tspan></tspan></tspan></text>
 <path fill="none" stroke="rgb(0,132,209)" stroke-width="80" stroke-linejoin="round" d="M 17136,5893 L 17936,5893"/>
 <path fill="rgb(0,132,209)" stroke="none" d="M 17430,5999 L 17641,5999 17430,5788 17641,5788 17430,5999 Z"/>
 <path fill="none" stroke="rgb(0,132,209)" stroke-linejoin="round" d="M 17430,5999 L 17641,5999 17430,5788 17641,5788 17430,5999 Z"/>
 <path fill="none" stroke="rgb(131,202,255)" stroke-width="80" stroke-linejoin="round" d="M 17136,6338 L 17936,6338"/>
 <path fill="rgb(131,202,255)" stroke="none" d="M 17430,6338 L 17536,6444 17641,6338 17536,6233 17430,6338 Z"/>
 <path fill="none" stroke="rgb(131,202,255)" stroke-linejoin="round" d="M 17430,6338 L 17536,6444 17641,6338 17536,6233 17430,6338 Z"/>
 <path fill="none" stroke="rgb(49,64,4)" stroke-width="80" stroke-linejoin="round" d="M 17136,6783 L 17936,6783"/>
 <path fill="rgb(49,64,4)" stroke="none" d="M 17430,6678 L 17430,6889 17641,6678 17641,6889 17430,6678 Z"/>
 <path fill="none" stroke="rgb(49,64,4)" stroke-linejoin="round" d="M 17430,6678 L 17430,6889 17641,6678 17641,6889 17430,6678 Z"/>
 <path fill="none" stroke="rgb(75,31,111)" stroke-width="80" stroke-linejoin="round" d="M 17136,7228 L 17936,7228"/>
 <path fill="rgb(75,31,111)" stroke="none" d="M 17430,7123 L 17430,7334 17641,7228 17430,7123 Z"/>
 <path fill="none" stroke="rgb(75,31,111)" stroke-linejoin="round" d="M 17430,7123 L 17430,7334 17641,7228 17430,7123 Z"/>
 <path fill="none" stroke="rgb(197,0,11)" stroke-width="80" stroke-linejoin="round" d="M 17136,7672 L 17936,7672"/>
 <path fill="rgb(197,0,11)" stroke="none" d="M 17430,7567 L 17536,7778 17641,7567 17430,7567 Z"/>
 <path fill="none" stroke="rgb(197,0,11)" stroke-linejoin="round" d="M 17430,7567 L 17536,7778 17641,7567 17430,7567 Z"/>
 <path fill="none" stroke="rgb(0,69,134)" stroke-width="80" stroke-linejoin="round" d="M 17136,8117 L 17936,8117"/>
 <path fill="rgb(0,69,134)" stroke="none" d="M 17430,8012 L 17430,8223 17641,8223 17641,8012 17430,8012 Z"/>
 <path fill="none" stroke="rgb(0,69,134)" stroke-linejoin="round" d="M 17430,8012 L 17430,8223 17641,8223 17641,8012 17430,8012 Z"/>
 <path fill="none" stroke="rgb(87,157,28)" stroke-width="80" stroke-linejoin="round" d="M 17136,8562 L 17936,8562"/>
 <path fill="rgb(87,157,28)" stroke="none" d="M 17430,8668 L 17641,8668 17536,8457 17430,8668 Z"/>
 <path fill="none" stroke="rgb(87,157,28)" stroke-linejoin="round" d="M 17430,8668 L 17641,8668 17536,8457 17430,8668 Z"/>
 <path fill="none" stroke="rgb(255,66,14)" stroke-width="80" stroke-linejoin="round" d="M 17136,9007 L 17936,9007"/>
 <path fill="rgb(255,66,14)" stroke="none" d="M 17430,9007 L 17641,9113 17641,8902 17430,9007 Z"/>
 <path fill="none" stroke="rgb(255,66,14)" stroke-linejoin="round" d="M 17430,9007 L 17641,9113 17641,8902 17430,9007 Z"/>
 <text class="TextShape"><tspan class="TextParagraph" font-family="Liberation Sans, sans-serif" font-size="353px" font-weight="400"><tspan class="TextPosition" x="18036" y="6012"><tspan fill="rgb(0,0,0)" stroke="none">low_k_sip_hash</tspan></tspan></tspan></text>
 <text class="TextShape"><tspan class="TextParagraph" font-family="Liberation Sans, sans-serif" font-size="353px" font-weight="400"><tspan class="TextPosition" x="18036" y="6457"><tspan fill="rgb(0,0,0)" stroke="none">random_sort_search</tspan></tspan></tspan></text>
 <text class="TextShape"><tspan class="TextParagraph" font-family="Liberation Sans, sans-serif" font-size="353px" font-weight="400"><tspan class="TextPosition" x="18036" y="6902"><tspan fill="rgb(0,0,0)" stroke="none">sip_hash</tspan></tspan></tspan></text>
 <text class="TextShape"><tspan class="TextParagraph" font-family="Liberation Sans, sans-serif" font-size="353px" font-weight="400"><tspan class="TextPosition" x="18036" y="7347"><tspan fill="rgb(0,0,0)" stroke="none">low_k_sort_search</tspan></tspan></tspan></text>
 <text class="TextShape"><tspan class="TextParagraph" font-family="Liberation Sans, sans-serif" font-size="353px" font-weight="400"><tspan class="TextPosition" x="18036" y="7791"><tspan fill="rgb(0,0,0)" stroke="none">random_radix_sort_search</tspan></tspan></tspan></text>
 <text class="TextShape"><tspan class="TextParagraph" font-family="Liberation Sans, sans-serif" font-size="353px" font-weight="400"><tspan class="TextPosition" x="18036" y="8236"><tspan fill="rgb(0,0,0)" stroke="none">random_hash</tspan></tspan></tspan></text>
 <text class="TextShape"><tspan class="TextParagraph" font-family="Liberation Sans, sans-serif" font-size="353px" font-weight="400"><tspan class="TextPosition" x="18036" y="8681"><tspan fill="rgb(0,0,0)" stroke="none">low_k_hash</tspan></tspan></tspan></text>
 <text class="TextShape"><tspan class="TextParagraph" font-family="Liberation Sans, sans-serif" font-size="353px" font-weight="400"><tspan class="TextPosition" x="18036" y="9126"><tspan fill="rgb(0,0,0)" stroke="none">low_k_radix_sort_search</tspan></tspan></tspan></text>
 <text class="TextShape"><tspan class="TextParagraph" font-family="Liberation Sans, sans-serif" font-size="318px" font-weight="400"><tspan class="TextPosition" x="8302" y="14333"><tspan fill="rgb(0,0,0)" stroke="none">n (log 10)</tspan></tspan></tspan></text>
 <text class="TextShape" transform="translate(811,7925) rotate(-90) translate(-811,-7925)"><tspan class="TextParagraph" font-family="Liberation Sans, sans-serif" font-size="318px" font-weight="400"><tspan class="TextPosition" x="811" y="7925"><tspan fill="rgb(0,0,0)" stroke="none">Time (ns/iter)</tspan></tspan></tspan></text>
</svg>
