<?xml version="1.0" encoding="UTF-8"?>
<!DOCTYPE svg PUBLIC "-//W3C//DTD SVG 1.1//EN" "http://www.w3.org/Graphics/SVG/1.1/DTD/svg11.dtd">
<svg width="205mm" height="139mm" viewBox="0 0 20500 13900" version="1.1" xmlns="http://www.w3.org/2000/svg" stroke-width="28.222" stroke-linejoin="round" xml:space="preserve">
 <path fill="rgb(255,255,255)" stroke="none" d="M 10243,13893 L 0,13893 0,0 20486,0 20486,13893 10243,13893 Z"/>
 <path fill="none" stroke="rgb(179,179,179)" stroke-linejoin="round" d="M 8522,12093 L 2915,12093 2915,450 14128,450 14128,12093 8522,12093 Z"/>
 <path fill="none" stroke="rgb(179,179,179)" stroke-linejoin="round" d="M 14127,12092 L 2915,12092"/>
 <path fill="none" stroke="rgb(179,179,179)" stroke-linejoin="round" d="M 14127,10428 L 2915,10428"/>
 <path fill="none" stroke="rgb(179,179,179)" stroke-linejoin="round" d="M 14127,8765 L 2915,8765"/>
 <path fill="none" stroke="rgb(179,179,179)" stroke-linejoin="round" d="M 14127,7101 L 2915,7101"/>
 <path fill="none" stroke="rgb(179,179,179)" stroke-linejoin="round" d="M 14127,5439 L 2915,5439"/>
 <path fill="none" stroke="rgb(179,179,179)" stroke-linejoin="round" d="M 14127,3775 L 2915,3775"/>
 <path fill="none" stroke="rgb(179,179,179)" stroke-linejoin="round" d="M 14127,2112 L 2915,2112"/>
 <path fill="none" stroke="rgb(179,179,179)" stroke-linejoin="round" d="M 14127,448 L 2915,448"/>
 <path fill="none" stroke="rgb(179,179,179)" stroke-linejoin="round" d="M 2915,12242 L 2915,12092"/>
 <path fill="none" stroke="rgb(179,179,179)" stroke-linejoin="round" d="M 2915,12242 L 2915,12092"/>
 <path fill="none" stroke="rgb(179,179,179)" stroke-linejoin="round" d="M 4784,12242 L 4784,12092"/>
 <path fill="none" stroke="rgb(179,179,179)" stroke-linejoin="round" d="M 4784,12242 L 4784,12092"/>
 <path fill="none" stroke="rgb(179,179,179)" stroke-linejoin="round" d="M 6653,12242 L 6653,12092"/>
 <path fill="none" stroke="rgb(179,179,179)" stroke-linejoin="round" d="M 6653,12242 L 6653,12092"/>
 <path fill="none" stroke="rgb(179,179,179)" stroke-linejoin="round" d="M 8522,12242 L 8522,12092"/>
 <path fill="none" stroke="rgb(179,179,179)" stroke-linejoin="round" d="M 8522,12242 L 8522,12092"/>
 <path fill="none" stroke="rgb(179,179,179)" stroke-linejoin="round" d="M 10390,12242 L 10390,12092"/>
 <path fill="none" stroke="rgb(179,179,179)" stroke-linejoin="round" d="M 10390,12242 L 10390,12092"/>
 <path fill="none" stroke="rgb(179,179,179)" stroke-linejoin="round" d="M 12258,12242 L 12258,12092"/>
 <path fill="none" stroke="rgb(179,179,179)" stroke-linejoin="round" d="M 12258,12242 L 12258,12092"/>
 <path fill="none" stroke="rgb(179,179,179)" stroke-linejoin="round" d="M 14127,12242 L 14127,12092"/>
 <path fill="none" stroke="rgb(179,179,179)" stroke-linejoin="round" d="M 14127,12242 L 14127,12092"/>
 <path fill="none" stroke="rgb(179,179,179)" stroke-linejoin="round" d="M 2915,12092 L 14127,12092"/>
 <path fill="none" stroke="rgb(179,179,179)" stroke-linejoin="round" d="M 2765,12092 L 2915,12092"/>
 <path fill="none" stroke="rgb(179,179,179)" stroke-linejoin="round" d="M 2765,12092 L 2915,12092"/>
 <path fill="none" stroke="rgb(179,179,179)" stroke-linejoin="round" d="M 2765,10428 L 2915,10428"/>
 <path fill="none" stroke="rgb(179,179,179)" stroke-linejoin="round" d="M 2765,10428 L 2915,10428"/>
 <path fill="none" stroke="rgb(179,179,179)" stroke-linejoin="round" d="M 2765,8765 L 2915,8765"/>
 <path fill="none" stroke="rgb(179,179,179)" stroke-linejoin="round" d="M 2765,8765 L 2915,8765"/>
 <path fill="none" stroke="rgb(179,179,179)" stroke-linejoin="round" d="M 2765,7101 L 2915,7101"/>
 <path fill="none" stroke="rgb(179,179,179)" stroke-linejoin="round" d="M 2765,7101 L 2915,7101"/>
 <path fill="none" stroke="rgb(179,179,179)" stroke-linejoin="round" d="M 2765,5439 L 2915,5439"/>
 <path fill="none" stroke="rgb(179,179,179)" stroke-linejoin="round" d="M 2765,5439 L 2915,5439"/>
 <path fill="none" stroke="rgb(179,179,179)" stroke-linejoin="round" d="M 2765,3775 L 2915,3775"/>
 <path fill="none" stroke="rgb(179,179,179)" stroke-linejoin="round" d="M 2765,3775 L 2915,3775"/>
 <path fill="none" stroke="rgb(179,179,179)" stroke-linejoin="round" d="M 2765,2112 L 2915,2112"/>
 <path fill="none" stroke="rgb(179,179,179)" stroke-linejoin="round" d="M 2765,2112 L 2915,2112"/>
 <path fill="none" stroke="rgb(179,179,179)" stroke-linejoin="round" d="M 2765,449 L 2915,449"/>
 <path fill="none" stroke="rgb(179,179,179)" stroke-linejoin="round" d="M 2765,449 L 2915,449"/>
 <path fill="none" stroke="rgb(179,179,179)" stroke-linejoin="round" d="M 2915,12092 L 2915,448"/>
 <path fill="none" stroke="rgb(255,127,0)" stroke-width="80" stroke-linejoin="round" d="M 2924,12087 L 3008,12062 3849,11822 12259,9147"/>
 <path fill="rgb(255,127,0)" stroke="none" d="M 3049,12087 L 3049,12082 3048,12076 3048,12071 3047,12065 3046,12060 3045,12055 3043,12050 3041,12044 3039,12039 3037,12034 3035,12029 3032,12025 3029,12020 3026,12015 3023,12011 3020,12007 3016,12003 3012,11999 3008,11995 3004,11991 3000,11988 2996,11985 2991,11982 2986,11979 2982,11976 2977,11974 2972,11972 2967,11970 2961,11968 2956,11966 2951,11965 2946,11964 2940,11963 2935,11963 2929,11962 2924,11962 2918,11962 2913,11963 2908,11963 2902,11964 2897,11965 2891,11966 2886,11968 2881,11970 2876,11972 2871,11974 2866,11976 2861,11979 2857,11982 2852,11985 2848,11988 2843,11991 2839,11995 2835,11999 2832,12003 2828,12007 2825,12011 2821,12015 2818,12020 2816,12025 2813,12029 2811,12034 2808,12039 2806,12044 2805,12050 2803,12055 2802,12060 2801,12065 2800,12071 2799,12076 2799,12082 2799,12087 2799,12093 2799,12098 2800,12103 2801,12109 2802,12114 2803,12120 2805,12125 2806,12130 2808,12135 2811,12140 2813,12145 2816,12150 2818,12154 2821,12159 2825,12163 2828,12168 2832,12172 2835,12176 2839,12179 2843,12183 2848,12186 2852,12190 2857,12193 2861,12195 2866,12198 2871,12200 2876,12203 2881,12205 2886,12206 2891,12208 2897,12209 2902,12210 2908,12211 2913,12212 2918,12212 2924,12212 2929,12212 2935,12212 2940,12211 2946,12210 2951,12209 2956,12208 2961,12206 2967,12205 2972,12203 2977,12200 2982,12198 2986,12195 2991,12193 2996,12190 3000,12186 3004,12183 3008,12179 3012,12176 3016,12172 3020,12168 3023,12163 3026,12159 3029,12154 3032,12150 3035,12145 3037,12140 3039,12135 3041,12130 3043,12125 3045,12120 3046,12114 3047,12109 3048,12103 3048,12098 3049,12093 3049,12087 Z"/>
 <path fill="none" stroke="rgb(255,127,0)" stroke-linejoin="round" d="M 3049,12087 L 3049,12082 3048,12076 3048,12071 3047,12065 3046,12060 3045,12055 3043,12050 3041,12044 3039,12039 3037,12034 3035,12029 3032,12025 3029,12020 3026,12015 3023,12011 3020,12007 3016,12003 3012,11999 3008,11995 3004,11991 3000,11988 2996,11985 2991,11982 2986,11979 2982,11976 2977,11974 2972,11972 2967,11970 2961,11968 2956,11966 2951,11965 2946,11964 2940,11963 2935,11963 2929,11962 2924,11962 2918,11962 2913,11963 2908,11963 2902,11964 2897,11965 2891,11966 2886,11968 2881,11970 2876,11972 2871,11974 2866,11976 2861,11979 2857,11982 2852,11985 2848,11988 2843,11991 2839,11995 2835,11999 2832,12003 2828,12007 2825,12011 2821,12015 2818,12020 2816,12025 2813,12029 2811,12034 2808,12039 2806,12044 2805,12050 2803,12055 2802,12060 2801,12065 2800,12071 2799,12076 2799,12082 2799,12087 2799,12093 2799,12098 2800,12103 2801,12109 2802,12114 2803,12120 2805,12125 2806,12130 2808,12135 2811,12140 2813,12145 2816,12150 2818,12154 2821,12159 2825,12163 2828,12168 2832,12172 2835,12176 2839,12179 2843,12183 2848,12186 2852,12190 2857,12193 2861,12195 2866,12198 2871,12200 2876,12203 2881,12205 2886,12206 2891,12208 2897,12209 2902,12210 2908,12211 2913,12212 2918,12212 2924,12212 2929,12212 2935,12212 2940,12211 2946,12210 2951,12209 2956,12208 2961,12206 2967,12205 2972,12203 2977,12200 2982,12198 2986,12195 2991,12193 2996,12190 3000,12186 3004,12183 3008,12179 3012,12176 3016,12172 3020,12168 3023,12163 3026,12159 3029,12154 3032,12150 3035,12145 3037,12140 3039,12135 3041,12130 3043,12125 3045,12120 3046,12114 3047,12109 3048,12103 3048,12098 3049,12093 3049,12087 Z"/>
 <path fill="rgb(255,127,0)" stroke="none" d="M 3133,12062 L 3133,12056 3132,12051 3132,12045 3131,12040 3130,12035 3129,12029 3127,12024 3125,12019 3123,12014 3121,12009 3119,12004 3116,11999 3113,11994 3110,11990 3107,11986 3104,11981 3100,11977 3096,11973 3092,11969 3088,11966 3084,11962 3080,11959 3075,11956 3070,11953 3066,11951 3061,11948 3056,11946 3051,11944 3046,11942 3040,11941 3035,11940 3030,11939 3024,11938 3019,11937 3013,11937 3008,11937 3002,11937 2997,11937 2992,11938 2986,11939 2981,11940 2976,11941 2970,11942 2965,11944 2960,11946 2955,11948 2950,11951 2945,11953 2941,11956 2936,11959 2932,11962 2928,11966 2924,11969 2920,11973 2916,11977 2912,11981 2909,11986 2906,11990 2903,11994 2900,11999 2897,12004 2895,12009 2892,12014 2890,12019 2889,12024 2887,12029 2886,12035 2885,12040 2884,12045 2883,12051 2883,12056 2883,12062 2883,12067 2883,12073 2884,12078 2885,12083 2886,12089 2887,12094 2889,12099 2890,12104 2892,12109 2895,12114 2897,12119 2900,12124 2903,12129 2906,12133 2909,12138 2912,12142 2916,12146 2920,12150 2924,12154 2928,12157 2932,12161 2936,12164 2941,12167 2945,12170 2950,12172 2955,12175 2960,12177 2965,12179 2970,12181 2976,12182 2981,12184 2986,12185 2992,12186 2997,12186 3002,12186 3008,12187 3013,12186 3019,12186 3024,12186 3030,12185 3035,12184 3040,12182 3046,12181 3051,12179 3056,12177 3061,12175 3066,12172 3070,12170 3075,12167 3080,12164 3084,12161 3088,12157 3092,12154 3096,12150 3100,12146 3104,12142 3107,12138 3110,12133 3113,12129 3116,12124 3119,12119 3121,12114 3123,12109 3125,12104 3127,12099 3129,12094 3130,12089 3131,12083 3132,12078 3132,12073 3133,12067 3133,12062 Z"/>
 <path fill="none" stroke="rgb(255,127,0)" stroke-linejoin="round" d="M 3133,12062 L 3133,12056 3132,12051 3132,12045 3131,12040 3130,12035 3129,12029 3127,12024 3125,12019 3123,12014 3121,12009 3119,12004 3116,11999 3113,11994 3110,11990 3107,11986 3104,11981 3100,11977 3096,11973 3092,11969 3088,11966 3084,11962 3080,11959 3075,11956 3070,11953 3066,11951 3061,11948 3056,11946 3051,11944 3046,11942 3040,11941 3035,11940 3030,11939 3024,11938 3019,11937 3013,11937 3008,11937 3002,11937 2997,11937 2992,11938 2986,11939 2981,11940 2976,11941 2970,11942 2965,11944 2960,11946 2955,11948 2950,11951 2945,11953 2941,11956 2936,11959 2932,11962 2928,11966 2924,11969 2920,11973 2916,11977 2912,11981 2909,11986 2906,11990 2903,11994 2900,11999 2897,12004 2895,12009 2892,12014 2890,12019 2889,12024 2887,12029 2886,12035 2885,12040 2884,12045 2883,12051 2883,12056 2883,12062 2883,12067 2883,12073 2884,12078 2885,12083 2886,12089 2887,12094 2889,12099 2890,12104 2892,12109 2895,12114 2897,12119 2900,12124 2903,12129 2906,12133 2909,12138 2912,12142 2916,12146 2920,12150 2924,12154 2928,12157 2932,12161 2936,12164 2941,12167 2945,12170 2950,12172 2955,12175 2960,12177 2965,12179 2970,12181 2976,12182 2981,12184 2986,12185 2992,12186 2997,12186 3002,12186 3008,12187 3013,12186 3019,12186 3024,12186 3030,12185 3035,12184 3040,12182 3046,12181 3051,12179 3056,12177 3061,12175 3066,12172 3070,12170 3075,12167 3080,12164 3084,12161 3088,12157 3092,12154 3096,12150 3100,12146 3104,12142 3107,12138 3110,12133 3113,12129 3116,12124 3119,12119 3121,12114 3123,12109 3125,12104 3127,12099 3129,12094 3130,12089 3131,12083 3132,12078 3132,12073 3133,12067 3133,12062 Z"/>
 <path fill="rgb(255,127,0)" stroke="none" d="M 3974,11822 L 3974,11817 3974,11811 3973,11806 3972,11800 3971,11795 3970,11790 3968,11785 3966,11779 3964,11774 3962,11769 3960,11764 3957,11760 3954,11755 3951,11750 3948,11746 3945,11742 3941,11738 3937,11734 3933,11730 3929,11726 3925,11723 3921,11720 3916,11717 3912,11714 3907,11711 3902,11709 3897,11707 3892,11705 3887,11703 3881,11701 3876,11700 3871,11699 3865,11698 3860,11698 3854,11697 3849,11697 3844,11697 3838,11698 3833,11698 3827,11699 3822,11700 3817,11701 3811,11703 3806,11705 3801,11707 3796,11709 3791,11711 3787,11714 3782,11717 3777,11720 3773,11723 3769,11726 3765,11730 3761,11734 3757,11738 3753,11742 3750,11746 3747,11750 3744,11755 3741,11760 3738,11764 3736,11769 3734,11774 3732,11779 3730,11785 3728,11790 3727,11795 3726,11800 3725,11806 3724,11811 3724,11817 3724,11822 3724,11828 3724,11833 3725,11838 3726,11844 3727,11849 3728,11855 3730,11860 3732,11865 3734,11870 3736,11875 3738,11880 3741,11885 3744,11889 3747,11894 3750,11898 3753,11903 3757,11907 3761,11911 3765,11914 3769,11918 3773,11921 3777,11925 3782,11928 3787,11930 3791,11933 3796,11935 3801,11938 3806,11940 3811,11941 3817,11943 3822,11944 3827,11945 3833,11946 3838,11947 3844,11947 3849,11947 3854,11947 3860,11947 3865,11946 3871,11945 3876,11944 3881,11943 3887,11941 3892,11940 3897,11938 3902,11935 3907,11933 3912,11930 3916,11928 3921,11925 3925,11921 3929,11918 3933,11914 3937,11911 3941,11907 3945,11903 3948,11898 3951,11894 3954,11889 3957,11885 3960,11880 3962,11875 3964,11870 3966,11865 3968,11860 3970,11855 3971,11849 3972,11844 3973,11838 3974,11833 3974,11828 3974,11822 Z"/>
 <path fill="none" stroke="rgb(255,127,0)" stroke-linejoin="round" d="M 3974,11822 L 3974,11817 3974,11811 3973,11806 3972,11800 3971,11795 3970,11790 3968,11785 3966,11779 3964,11774 3962,11769 3960,11764 3957,11760 3954,11755 3951,11750 3948,11746 3945,11742 3941,11738 3937,11734 3933,11730 3929,11726 3925,11723 3921,11720 3916,11717 3912,11714 3907,11711 3902,11709 3897,11707 3892,11705 3887,11703 3881,11701 3876,11700 3871,11699 3865,11698 3860,11698 3854,11697 3849,11697 3844,11697 3838,11698 3833,11698 3827,11699 3822,11700 3817,11701 3811,11703 3806,11705 3801,11707 3796,11709 3791,11711 3787,11714 3782,11717 3777,11720 3773,11723 3769,11726 3765,11730 3761,11734 3757,11738 3753,11742 3750,11746 3747,11750 3744,11755 3741,11760 3738,11764 3736,11769 3734,11774 3732,11779 3730,11785 3728,11790 3727,11795 3726,11800 3725,11806 3724,11811 3724,11817 3724,11822 3724,11828 3724,11833 3725,11838 3726,11844 3727,11849 3728,11855 3730,11860 3732,11865 3734,11870 3736,11875 3738,11880 3741,11885 3744,11889 3747,11894 3750,11898 3753,11903 3757,11907 3761,11911 3765,11914 3769,11918 3773,11921 3777,11925 3782,11928 3787,11930 3791,11933 3796,11935 3801,11938 3806,11940 3811,11941 3817,11943 3822,11944 3827,11945 3833,11946 3838,11947 3844,11947 3849,11947 3854,11947 3860,11947 3865,11946 3871,11945 3876,11944 3881,11943 3887,11941 3892,11940 3897,11938 3902,11935 3907,11933 3912,11930 3916,11928 3921,11925 3925,11921 3929,11918 3933,11914 3937,11911 3941,11907 3945,11903 3948,11898 3951,11894 3954,11889 3957,11885 3960,11880 3962,11875 3964,11870 3966,11865 3968,11860 3970,11855 3971,11849 3972,11844 3973,11838 3974,11833 3974,11828 3974,11822 Z"/>
 <path fill="rgb(255,127,0)" stroke="none" d="M 12384,9147 L 12383,9142 12383,9137 12382,9131 12382,9126 12381,9120 12379,9115 12378,9110 12376,9105 12374,9100 12372,9095 12369,9090 12367,9085 12364,9080 12361,9076 12358,9071 12354,9067 12351,9063 12347,9059 12343,9055 12339,9052 12335,9048 12330,9045 12326,9042 12321,9039 12316,9037 12311,9034 12306,9032 12301,9030 12296,9028 12291,9027 12286,9025 12280,9024 12275,9023 12269,9023 12264,9023 12259,9022 12253,9023 12248,9023 12242,9023 12237,9024 12231,9025 12226,9027 12221,9028 12216,9030 12211,9032 12206,9034 12201,9037 12196,9039 12191,9042 12187,9045 12182,9048 12178,9052 12174,9055 12170,9059 12166,9063 12163,9067 12159,9071 12156,9076 12153,9080 12150,9085 12148,9090 12145,9095 12143,9100 12141,9105 12139,9110 12138,9115 12136,9120 12135,9126 12135,9131 12134,9137 12134,9142 12134,9147 12134,9153 12134,9158 12135,9164 12135,9169 12136,9174 12138,9180 12139,9185 12141,9190 12143,9195 12145,9200 12148,9205 12150,9210 12153,9215 12156,9219 12159,9223 12163,9228 12166,9232 12170,9236 12174,9240 12178,9243 12182,9247 12187,9250 12191,9253 12196,9256 12201,9258 12206,9261 12211,9263 12216,9265 12221,9267 12226,9268 12231,9269 12237,9270 12242,9271 12248,9272 12253,9272 12259,9272 12264,9272 12269,9272 12275,9271 12280,9270 12286,9269 12291,9268 12296,9267 12301,9265 12306,9263 12311,9261 12316,9258 12321,9256 12326,9253 12330,9250 12335,9247 12339,9243 12343,9240 12347,9236 12351,9232 12354,9228 12358,9223 12361,9219 12364,9215 12367,9210 12369,9205 12372,9200 12374,9195 12376,9190 12378,9185 12379,9180 12381,9174 12382,9169 12382,9164 12383,9158 12383,9153 12384,9147 Z"/>
 <path fill="none" stroke="rgb(255,127,0)" stroke-linejoin="round" d="M 12384,9147 L 12383,9142 12383,9137 12382,9131 12382,9126 12381,9120 12379,9115 12378,9110 12376,9105 12374,9100 12372,9095 12369,9090 12367,9085 12364,9080 12361,9076 12358,9071 12354,9067 12351,9063 12347,9059 12343,9055 12339,9052 12335,9048 12330,9045 12326,9042 12321,9039 12316,9037 12311,9034 12306,9032 12301,9030 12296,9028 12291,9027 12286,9025 12280,9024 12275,9023 12269,9023 12264,9023 12259,9022 12253,9023 12248,9023 12242,9023 12237,9024 12231,9025 12226,9027 12221,9028 12216,9030 12211,9032 12206,9034 12201,9037 12196,9039 12191,9042 12187,9045 12182,9048 12178,9052 12174,9055 12170,9059 12166,9063 12163,9067 12159,9071 12156,9076 12153,9080 12150,9085 12148,9090 12145,9095 12143,9100 12141,9105 12139,9110 12138,9115 12136,9120 12135,9126 12135,9131 12134,9137 12134,9142 12134,9147 12134,9153 12134,9158 12135,9164 12135,9169 12136,9174 12138,9180 12139,9185 12141,9190 12143,9195 12145,9200 12148,9205 12150,9210 12153,9215 12156,9219 12159,9223 12163,9228 12166,9232 12170,9236 12174,9240 12178,9243 12182,9247 12187,9250 12191,9253 12196,9256 12201,9258 12206,9261 12211,9263 12216,9265 12221,9267 12226,9268 12231,9269 12237,9270 12242,9271 12248,9272 12253,9272 12259,9272 12264,9272 12269,9272 12275,9271 12280,9270 12286,9269 12291,9268 12296,9267 12301,9265 12306,9263 12311,9261 12316,9258 12321,9256 12326,9253 12330,9250 12335,9247 12339,9243 12343,9240 12347,9236 12351,9232 12354,9228 12358,9223 12361,9219 12364,9215 12367,9210 12369,9205 12372,9200 12374,9195 12376,9190 12378,9185 12379,9180 12381,9174 12382,9169 12382,9164 12383,9158 12383,9153 12384,9147 Z"/>
 <path fill="none" stroke="rgb(0,63,128)" stroke-width="80" stroke-linejoin="round" d="M 2924,12090 L 3008,12074 3849,11767 12259,8331"/>
 <path fill="rgb(0,63,128)" stroke="none" d="M 2799,11965 L 2799,12215 3049,12215 3049,11965 2799,11965 Z"/>
 <path fill="none" stroke="rgb(0,63,128)" stroke-linejoin="round" d="M 2799,11965 L 2799,12215 3049,12215 3049,11965 2799,11965 Z"/>
 <path fill="rgb(0,63,128)" stroke="none" d="M 2883,11949 L 2883,12199 3133,12199 3133,11949 2883,11949 Z"/>
 <path fill="none" stroke="rgb(0,63,128)" stroke-linejoin="round" d="M 2883,11949 L 2883,12199 3133,12199 3133,11949 2883,11949 Z"/>
 <path fill="rgb(0,63,128)" stroke="none" d="M 3724,11642 L 3724,11892 3974,11892 3974,11642 3724,11642 Z"/>
 <path fill="none" stroke="rgb(0,63,128)" stroke-linejoin="round" d="M 3724,11642 L 3724,11892 3974,11892 3974,11642 3724,11642 Z"/>
 <path fill="rgb(0,63,128)" stroke="none" d="M 12134,8206 L 12134,8456 12384,8456 12384,8206 12134,8206 Z"/>
 <path fill="none" stroke="rgb(0,63,128)" stroke-linejoin="round" d="M 12134,8206 L 12134,8456 12384,8456 12384,8206 12134,8206 Z"/>
 <path fill="none" stroke="rgb(95,159,95)" stroke-width="80" stroke-linejoin="round" d="M 2924,12090 L 3008,12074 3849,11764 12259,8321"/>
 <path fill="rgb(95,159,95)" stroke="none" d="M 2799,12090 L 2924,12215 3049,12090 2924,11965 2799,12090 Z"/>
 <path fill="none" stroke="rgb(95,159,95)" stroke-linejoin="round" d="M 2799,12090 L 2924,12215 3049,12090 2924,11965 2799,12090 Z"/>
 <path fill="rgb(95,159,95)" stroke="none" d="M 2883,12074 L 3008,12199 3133,12074 3008,11949 2883,12074 Z"/>
 <path fill="none" stroke="rgb(95,159,95)" stroke-linejoin="round" d="M 2883,12074 L 3008,12199 3133,12074 3008,11949 2883,12074 Z"/>
 <path fill="rgb(95,159,95)" stroke="none" d="M 3724,11764 L 3849,11889 3974,11764 3849,11639 3724,11764 Z"/>
 <path fill="none" stroke="rgb(95,159,95)" stroke-linejoin="round" d="M 3724,11764 L 3849,11889 3974,11764 3849,11639 3724,11764 Z"/>
 <path fill="rgb(95,159,95)" stroke="none" d="M 12134,8321 L 12259,8446 12384,8321 12259,8196 12134,8321 Z"/>
 <path fill="none" stroke="rgb(95,159,95)" stroke-linejoin="round" d="M 12134,8321 L 12259,8446 12384,8321 12259,8196 12134,8321 Z"/>
 <path fill="none" stroke="rgb(210,43,43)" stroke-width="80" stroke-linejoin="round" d="M 2924,12087 L 3008,12062 3849,11818 12259,7913"/>
 <path fill="rgb(210,43,43)" stroke="none" d="M 2799,11962 L 2799,12212 3049,12087 2799,11962 Z"/>
 <path fill="none" stroke="rgb(210,43,43)" stroke-linejoin="round" d="M 2799,11962 L 2799,12212 3049,12087 2799,11962 Z"/>
 <path fill="rgb(210,43,43)" stroke="none" d="M 2883,11937 L 2883,12187 3133,12062 2883,11937 Z"/>
 <path fill="none" stroke="rgb(210,43,43)" stroke-linejoin="round" d="M 2883,11937 L 2883,12187 3133,12062 2883,11937 Z"/>
 <path fill="rgb(210,43,43)" stroke="none" d="M 3724,11693 L 3724,11943 3974,11818 3724,11693 Z"/>
 <path fill="none" stroke="rgb(210,43,43)" stroke-linejoin="round" d="M 3724,11693 L 3724,11943 3974,11818 3724,11693 Z"/>
 <path fill="rgb(210,43,43)" stroke="none" d="M 12134,7788 L 12134,8038 12384,7913 12134,7788 Z"/>
 <path fill="none" stroke="rgb(210,43,43)" stroke-linejoin="round" d="M 12134,7788 L 12134,8038 12384,7913 12134,7788 Z"/>
 <path fill="none" stroke="rgb(63,0,128)" stroke-width="80" stroke-linejoin="round" d="M 2924,12089 L 3008,12047 3849,11361 12259,2791"/>
 <path fill="rgb(63,0,128)" stroke="none" d="M 2799,12214 L 3049,12214 2924,11964 2799,12214 Z"/>
 <path fill="none" stroke="rgb(63,0,128)" stroke-linejoin="round" d="M 2799,12214 L 3049,12214 2924,11964 2799,12214 Z"/>
 <path fill="rgb(63,0,128)" stroke="none" d="M 2883,12172 L 3133,12172 3008,11922 2883,12172 Z"/>
 <path fill="none" stroke="rgb(63,0,128)" stroke-linejoin="round" d="M 2883,12172 L 3133,12172 3008,11922 2883,12172 Z"/>
 <path fill="rgb(63,0,128)" stroke="none" d="M 3724,11486 L 3974,11486 3849,11236 3724,11486 Z"/>
 <path fill="none" stroke="rgb(63,0,128)" stroke-linejoin="round" d="M 3724,11486 L 3974,11486 3849,11236 3724,11486 Z"/>
 <path fill="rgb(63,0,128)" stroke="none" d="M 12134,2916 L 12384,2916 12259,2666 12134,2916 Z"/>
 <path fill="none" stroke="rgb(63,0,128)" stroke-linejoin="round" d="M 12134,2916 L 12384,2916 12259,2666 12134,2916 Z"/>
 <path fill="none" stroke="rgb(49,64,4)" stroke-width="80" stroke-linejoin="round" d="M 2924,12084 L 3008,12033 3849,11400 12259,2299"/>
 <path fill="rgb(49,64,4)" stroke="none" d="M 2799,11959 L 2799,12209 3049,11959 3049,12209 2799,11959 Z"/>
 <path fill="none" stroke="rgb(49,64,4)" stroke-linejoin="round" d="M 2799,11959 L 2799,12209 3049,11959 3049,12209 2799,11959 Z"/>
 <path fill="rgb(49,64,4)" stroke="none" d="M 2883,11908 L 2883,12158 3133,11908 3133,12158 2883,11908 Z"/>
 <path fill="none" stroke="rgb(49,64,4)" stroke-linejoin="round" d="M 2883,11908 L 2883,12158 3133,11908 3133,12158 2883,11908 Z"/>
 <path fill="rgb(49,64,4)" stroke="none" d="M 3724,11275 L 3724,11525 3974,11275 3974,11525 3724,11275 Z"/>
 <path fill="none" stroke="rgb(49,64,4)" stroke-linejoin="round" d="M 3724,11275 L 3724,11525 3974,11275 3974,11525 3724,11275 Z"/>
 <path fill="rgb(49,64,4)" stroke="none" d="M 12134,2174 L 12134,2424 12384,2174 12384,2424 12134,2174 Z"/>
 <path fill="none" stroke="rgb(49,64,4)" stroke-linejoin="round" d="M 12134,2174 L 12134,2424 12384,2174 12384,2424 12134,2174 Z"/>
 <path fill="none" stroke="rgb(43,208,210)" stroke-width="80" stroke-linejoin="round" d="M 2924,12089 L 3008,12047 3849,11356 12259,1614"/>
 <path fill="rgb(43,208,210)" stroke="none" d="M 2799,12089 L 2924,12214 3049,12089 2924,11964 2799,12089 Z"/>
 <path fill="none" stroke="rgb(43,208,210)" stroke-linejoin="round" d="M 2799,12089 L 2924,12214 3049,12089 2924,11964 2799,12089 Z"/>
 <path fill="rgb(43,208,210)" stroke="none" d="M 2883,12047 L 3008,12172 3133,12047 3008,11922 2883,12047 Z"/>
 <path fill="none" stroke="rgb(43,208,210)" stroke-linejoin="round" d="M 2883,12047 L 3008,12172 3133,12047 3008,11922 2883,12047 Z"/>
 <path fill="rgb(43,208,210)" stroke="none" d="M 3724,11356 L 3849,11481 3974,11356 3849,11231 3724,11356 Z"/>
 <path fill="none" stroke="rgb(43,208,210)" stroke-linejoin="round" d="M 3724,11356 L 3849,11481 3974,11356 3849,11231 3724,11356 Z"/>
 <path fill="rgb(43,208,210)" stroke="none" d="M 12134,1614 L 12259,1739 12384,1614 12259,1489 12134,1614 Z"/>
 <path fill="none" stroke="rgb(43,208,210)" stroke-linejoin="round" d="M 12134,1614 L 12259,1739 12384,1614 12259,1489 12134,1614 Z"/>
 <path fill="none" stroke="rgb(63,128,0)" stroke-width="80" stroke-linejoin="round" d="M 2924,12084 L 3008,12029 3849,11400 12259,1618"/>
 <path fill="rgb(63,128,0)" stroke="none" d="M 2799,12209 L 3049,12209 2799,11959 3049,11959 2799,12209 Z"/>
 <path fill="none" stroke="rgb(63,128,0)" stroke-linejoin="round" d="M 2799,12209 L 3049,12209 2799,11959 3049,11959 2799,12209 Z"/>
 <path fill="rgb(63,128,0)" stroke="none" d="M 2883,12154 L 3133,12154 2883,11904 3133,11904 2883,12154 Z"/>
 <path fill="none" stroke="rgb(63,128,0)" stroke-linejoin="round" d="M 2883,12154 L 3133,12154 2883,11904 3133,11904 2883,12154 Z"/>
 <path fill="rgb(63,128,0)" stroke="none" d="M 3724,11525 L 3974,11525 3724,11275 3974,11275 3724,11525 Z"/>
 <path fill="none" stroke="rgb(63,128,0)" stroke-linejoin="round" d="M 3724,11525 L 3974,11525 3724,11275 3974,11275 3724,11525 Z"/>
 <path fill="rgb(63,128,0)" stroke="none" d="M 12134,1743 L 12384,1743 12134,1493 12384,1493 12134,1743 Z"/>
 <path fill="none" stroke="rgb(63,128,0)" stroke-linejoin="round" d="M 12134,1743 L 12384,1743 12134,1493 12384,1493 12134,1743 Z"/>
 <text class="TextShape"><tspan class="TextParagraph" font-family="Liberation Sans, sans-serif" font-size="353px" font-weight="400"><tspan class="TextPosition" x="2822" y="12633"><tspan fill="rgb(0,0,0)" stroke="none">0</tspan></tspan></tspan></text>
 <text class="TextShape"><tspan class="TextParagraph" font-family="Liberation Sans, sans-serif" font-size="353px" font-weight="400"><tspan class="TextPosition" x="4321" y="12633"><tspan fill="rgb(0,0,0)" stroke="none">20000</tspan></tspan></tspan></text>
 <text class="TextShape"><tspan class="TextParagraph" font-family="Liberation Sans, sans-serif" font-size="353px" font-weight="400"><tspan class="TextPosition" x="6190" y="12633"><tspan fill="rgb(0,0,0)" stroke="none">40000</tspan></tspan></tspan></text>
 <text class="TextShape"><tspan class="TextParagraph" font-family="Liberation Sans, sans-serif" font-size="353px" font-weight="400"><tspan class="TextPosition" x="8059" y="12633"><tspan fill="rgb(0,0,0)" stroke="none">60000</tspan></tspan></tspan></text>
 <text class="TextShape"><tspan class="TextParagraph" font-family="Liberation Sans, sans-serif" font-size="353px" font-weight="400"><tspan class="TextPosition" x="9928" y="12633"><tspan fill="rgb(0,0,0)" stroke="none">80000</tspan></tspan></tspan></text>
 <text class="TextShape"><tspan class="TextParagraph" font-family="Liberation Sans, sans-serif" font-size="353px" font-weight="400"><tspan class="TextPosition" x="11703" y="12633"><tspan fill="rgb(0,0,0)" stroke="none">100000</tspan></tspan></tspan></text>
 <text class="TextShape"><tspan class="TextParagraph" font-family="Liberation Sans, sans-serif" font-size="353px" font-weight="400"><tspan class="TextPosition" x="13572" y="12633"><tspan fill="rgb(0,0,0)" stroke="none">120000</tspan></tspan></tspan></text>
 <text class="TextShape"><tspan class="TextParagraph" font-family="Liberation Sans, sans-serif" font-size="353px" font-weight="400"><tspan class="TextPosition" x="2480" y="12212"><tspan fill="rgb(0,0,0)" stroke="none">0</tspan></tspan></tspan></text>
 <text class="TextShape"><tspan class="TextParagraph" font-family="Liberation Sans, sans-serif" font-size="353px" font-weight="400"><tspan class="TextPosition" x="1369" y="10548"><tspan fill="rgb(0,0,0)" stroke="none">1000000</tspan></tspan></tspan></text>
 <text class="TextShape"><tspan class="TextParagraph" font-family="Liberation Sans, sans-serif" font-size="353px" font-weight="400"><tspan class="TextPosition" x="1369" y="8885"><tspan fill="rgb(0,0,0)" stroke="none">2000000</tspan></tspan></tspan></text>
 <text class="TextShape"><tspan class="TextParagraph" font-family="Liberation Sans, sans-serif" font-size="353px" font-weight="400"><tspan class="TextPosition" x="1369" y="7221"><tspan fill="rgb(0,0,0)" stroke="none">3000000</tspan></tspan></tspan></text>
 <text class="TextShape"><tspan class="TextParagraph" font-family="Liberation Sans, sans-serif" font-size="353px" font-weight="400"><tspan class="TextPosition" x="1369" y="5558"><tspan fill="rgb(0,0,0)" stroke="none">4000000</tspan></tspan></tspan></text>
 <text class="TextShape"><tspan class="TextParagraph" font-family="Liberation Sans, sans-serif" font-size="353px" font-weight="400"><tspan class="TextPosition" x="1369" y="3894"><tspan fill="rgb(0,0,0)" stroke="none">5000000</tspan></tspan></tspan></text>
 <text class="TextShape"><tspan class="TextParagraph" font-family="Liberation Sans, sans-serif" font-size="353px" font-weight="400"><tspan class="TextPosition" x="1369" y="2231"><tspan fill="rgb(0,0,0)" stroke="none">6000000</tspan></tspan></tspan></text>
 <text class="TextShape"><tspan class="TextParagraph" font-family="Liberation Sans, sans-serif" font-size="353px" font-weight="400"><tspan class="TextPosition" x="1369" y="568"><tspan fill="rgb(0,0,0)" stroke="none">7000000</tspan></tspan></tspan></text>
 <path fill="none" stroke="rgb(63,128,0)" stroke-width="80" stroke-linejoin="round" d="M 15210,5389 L 16010,5389"/>
 <path fill="rgb(63,128,0)" stroke="none" d="M 15504,5495 L 15715,5495 15504,5284 15715,5284 15504,5495 Z"/>
 <path fill="none" stroke="rgb(63,128,0)" stroke-linejoin="round" d="M 15504,5495 L 15715,5495 15504,5284 15715,5284 15504,5495 Z"/>
 <path fill="none" stroke="rgb(43,208,210)" stroke-width="80" stroke-linejoin="round" d="M 15210,5834 L 16010,5834"/>
 <path fill="rgb(43,208,210)" stroke="none" d="M 15504,5834 L 15610,5940 15715,5834 15610,5729 15504,5834 Z"/>
 <path fill="none" stroke="rgb(43,208,210)" stroke-linejoin="round" d="M 15504,5834 L 15610,5940 15715,5834 15610,5729 15504,5834 Z"/>
 <path fill="none" stroke="rgb(49,64,4)" stroke-width="80" stroke-linejoin="round" d="M 15210,6279 L 16010,6279"/>
 <path fill="rgb(49,64,4)" stroke="none" d="M 15504,6174 L 15504,6385 15715,6174 15715,6385 15504,6174 Z"/>
 <path fill="none" stroke="rgb(49,64,4)" stroke-linejoin="round" d="M 15504,6174 L 15504,6385 15715,6174 15715,6385 15504,6174 Z"/>
 <path fill="none" stroke="rgb(63,0,128)" stroke-width="80" stroke-linejoin="round" d="M 15210,6724 L 16010,6724"/>
 <path fill="rgb(63,0,128)" stroke="none" d="M 15504,6830 L 15715,6830 15610,6619 15504,6830 Z"/>
 <path fill="none" stroke="rgb(63,0,128)" stroke-linejoin="round" d="M 15504,6830 L 15715,6830 15610,6619 15504,6830 Z"/>
 <path fill="none" stroke="rgb(210,43,43)" stroke-width="80" stroke-linejoin="round" d="M 15210,7168 L 16010,7168"/>
 <path fill="rgb(210,43,43)" stroke="none" d="M 15504,7063 L 15504,7274 15715,7168 15504,7063 Z"/>
 <path fill="none" stroke="rgb(210,43,43)" stroke-linejoin="round" d="M 15504,7063 L 15504,7274 15715,7168 15504,7063 Z"/>
 <path fill="none" stroke="rgb(95,159,95)" stroke-width="80" stroke-linejoin="round" d="M 15210,7613 L 16010,7613"/>
 <path fill="rgb(95,159,95)" stroke="none" d="M 15504,7613 L 15610,7719 15715,7613 15610,7508 15504,7613 Z"/>
 <path fill="none" stroke="rgb(95,159,95)" stroke-linejoin="round" d="M 15504,7613 L 15610,7719 15715,7613 15610,7508 15504,7613 Z"/>
 <path fill="none" stroke="rgb(0,63,128)" stroke-width="80" stroke-linejoin="round" d="M 15210,8058 L 16010,8058"/>
 <path fill="rgb(0,63,128)" stroke="none" d="M 15504,7953 L 15504,8164 15715,8164 15715,7953 15504,7953 Z"/>
 <path fill="none" stroke="rgb(0,63,128)" stroke-linejoin="round" d="M 15504,7953 L 15504,8164 15715,8164 15715,7953 15504,7953 Z"/>
 <path fill="none" stroke="rgb(255,127,0)" stroke-width="80" stroke-linejoin="round" d="M 15210,8503 L 16010,8503"/>
 <path fill="rgb(255,127,0)" stroke="none" d="M 15715,8503 L 15715,8498 15715,8494 15714,8489 15713,8485 15712,8480 15711,8476 15710,8471 15709,8467 15707,8463 15705,8458 15703,8454 15701,8450 15698,8446 15696,8442 15693,8439 15690,8435 15687,8432 15684,8428 15681,8425 15677,8422 15674,8419 15670,8417 15666,8414 15662,8412 15658,8409 15654,8407 15650,8406 15646,8404 15641,8402 15637,8401 15632,8400 15628,8399 15623,8398 15619,8398 15614,8398 15610,8398 15605,8398 15600,8398 15596,8398 15591,8399 15587,8400 15582,8401 15578,8402 15573,8404 15569,8406 15565,8407 15561,8409 15557,8412 15553,8414 15549,8417 15545,8419 15542,8422 15538,8425 15535,8428 15532,8432 15529,8435 15526,8439 15523,8442 15521,8446 15518,8450 15516,8454 15514,8458 15512,8463 15510,8467 15509,8471 15508,8476 15507,8480 15506,8485 15505,8489 15504,8494 15504,8498 15504,8503 15504,8508 15504,8512 15505,8517 15506,8521 15507,8526 15508,8530 15509,8535 15510,8539 15512,8543 15514,8548 15516,8552 15518,8556 15521,8560 15523,8564 15526,8567 15529,8571 15532,8574 15535,8578 15538,8581 15542,8584 15545,8587 15549,8589 15553,8592 15557,8594 15561,8597 15565,8599 15569,8600 15573,8602 15578,8604 15582,8605 15587,8606 15591,8607 15596,8608 15600,8608 15605,8608 15610,8609 15614,8608 15619,8608 15623,8608 15628,8607 15632,8606 15637,8605 15641,8604 15646,8602 15650,8600 15654,8599 15658,8597 15662,8594 15666,8592 15670,8589 15674,8587 15677,8584 15681,8581 15684,8578 15687,8574 15690,8571 15693,8567 15696,8564 15698,8560 15701,8556 15703,8552 15705,8548 15707,8543 15709,8539 15710,8535 15711,8530 15712,8526 15713,8521 15714,8517 15715,8512 15715,8508 15715,8503 Z"/>
 <path fill="none" stroke="rgb(255,127,0)" stroke-linejoin="round" d="M 15715,8503 L 15715,8498 15715,8494 15714,8489 15713,8485 15712,8480 15711,8476 15710,8471 15709,8467 15707,8463 15705,8458 15703,8454 15701,8450 15698,8446 15696,8442 15693,8439 15690,8435 15687,8432 15684,8428 15681,8425 15677,8422 15674,8419 15670,8417 15666,8414 15662,8412 15658,8409 15654,8407 15650,8406 15646,8404 15641,8402 15637,8401 15632,8400 15628,8399 15623,8398 15619,8398 15614,8398 15610,8398 15605,8398 15600,8398 15596,8398 15591,8399 15587,8400 15582,8401 15578,8402 15573,8404 15569,8406 15565,8407 15561,8409 15557,8412 15553,8414 15549,8417 15545,8419 15542,8422 15538,8425 15535,8428 15532,8432 15529,8435 15526,8439 15523,8442 15521,8446 15518,8450 15516,8454 15514,8458 15512,8463 15510,8467 15509,8471 15508,8476 15507,8480 15506,8485 15505,8489 15504,8494 15504,8498 15504,8503 15504,8508 15504,8512 15505,8517 15506,8521 15507,8526 15508,8530 15509,8535 15510,8539 15512,8543 15514,8548 15516,8552 15518,8556 15521,8560 15523,8564 15526,8567 15529,8571 15532,8574 15535,8578 15538,8581 15542,8584 15545,8587 15549,8589 15553,8592 15557,8594 15561,8597 15565,8599 15569,8600 15573,8602 15578,8604 15582,8605 15587,8606 15591,8607 15596,8608 15600,8608 15605,8608 15610,8609 15614,8608 15619,8608 15623,8608 15628,8607 15632,8606 15637,8605 15641,8604 15646,8602 15650,8600 15654,8599 15658,8597 15662,8594 15666,8592 15670,8589 15674,8587 15677,8584 15681,8581 15684,8578 15687,8574 15690,8571 15693,8567 15696,8564 15698,8560 15701,8556 15703,8552 15705,8548 15707,8543 15709,8539 15710,8535 15711,8530 15712,8526 15713,8521 15714,8517 15715,8512 15715,8508 15715,8503 Z"/>
 <text class="TextShape"><tspan class="TextParagraph" font-family="Liberation Sans, sans-serif" font-size="353px" font-weight="400"><tspan class="TextPosition" x="16110" y="5508"><tspan fill="rgb(0,0,0)" stroke="none">low_k_sip_hash</tspan></tspan></tspan></text>
 <text class="TextShape"><tspan class="TextParagraph" font-family="Liberation Sans, sans-serif" font-size="353px" font-weight="400"><tspan class="TextPosition" x="16110" y="5953"><tspan fill="rgb(0,0,0)" stroke="none">random_sort_search</tspan></tspan></tspan></text>
 <text class="TextShape"><tspan class="TextParagraph" font-family="Liberation Sans, sans-serif" font-size="353px" font-weight="400"><tspan class="TextPosition" x="16110" y="6398"><tspan fill="rgb(0,0,0)" stroke="none">sip_hash</tspan></tspan></tspan></text>
 <text class="TextShape"><tspan class="TextParagraph" font-family="Liberation Sans, sans-serif" font-size="353px" font-weight="400"><tspan class="TextPosition" x="16110" y="6843"><tspan fill="rgb(0,0,0)" stroke="none">low_k_sort_search</tspan></tspan></tspan></text>
 <text class="TextShape"><tspan class="TextParagraph" font-family="Liberation Sans, sans-serif" font-size="353px" font-weight="400"><tspan class="TextPosition" x="16110" y="7287"><tspan fill="rgb(0,0,0)" stroke="none">random_radix_sort_search</tspan></tspan></tspan></text>
 <text class="TextShape"><tspan class="TextParagraph" font-family="Liberation Sans, sans-serif" font-size="353px" font-weight="400"><tspan class="TextPosition" x="16110" y="7732"><tspan fill="rgb(0,0,0)" stroke="none">random_hash</tspan></tspan></tspan></text>
 <text class="TextShape"><tspan class="TextParagraph" font-family="Liberation Sans, sans-serif" font-size="353px" font-weight="400"><tspan class="TextPosition" x="16110" y="8177"><tspan fill="rgb(0,0,0)" stroke="none">low_k_hash</tspan></tspan></tspan></text>
 <text class="TextShape"><tspan class="TextParagraph" font-family="Liberation Sans, sans-serif" font-size="353px" font-weight="400"><tspan class="TextPosition" x="16110" y="8622"><tspan fill="rgb(0,0,0)" stroke="none">low_k_radix_sort_search</tspan></tspan></tspan></text>
 <text class="TextShape"><tspan class="TextParagraph" font-family="Liberation Sans, sans-serif" font-size="318px" font-weight="400"><tspan class="TextPosition" x="7934" y="13325"><tspan fill="rgb(0,0,0)" stroke="none">n</tspan></tspan></tspan></text>
 <text class="TextShape" transform="translate(811,7447) rotate(-90) translate(-811,-7447)"><tspan class="TextParagraph" font-family="Liberation Sans, sans-serif" font-size="318px" font-weight="400"><tspan class="TextPosition" x="811" y="7447"><tspan fill="rgb(0,0,0)" stroke="none">time (ns / iter)</tspan></tspan></tspan></text>
</svg>