<?xml version="1.0" encoding="UTF-8"?>
<!DOCTYPE svg PUBLIC "-//W3C//DTD SVG 1.1//EN" "http://www.w3.org/Graphics/SVG/1.1/DTD/svg11.dtd">
<svg width="225mm" height="149mm" viewBox="0 0 22500 15300" version="1.1" xmlns="http://www.w3.org/2000/svg" stroke-width="28.222" stroke-linejoin="round" xml:space="preserve">
 <path fill="rgb(255,255,255)" stroke="none" d="M 11261,15273 L 0,15273 0,0 22521,0 22521,15273 11261,15273 Z"/>
 <path fill="none" stroke="rgb(179,179,179)" stroke-linejoin="round" d="M 9261,13445 L 2771,13445 2771,1672 15751,1672 15751,13445 9261,13445 Z"/>
 <path fill="none" stroke="rgb(179,179,179)" stroke-linejoin="round" d="M 15751,13444 L 2771,13444"/>
 <path fill="none" stroke="rgb(179,179,179)" stroke-linejoin="round" d="M 15751,10500 L 2771,10500"/>
 <path fill="none" stroke="rgb(179,179,179)" stroke-linejoin="round" d="M 15751,7558 L 2771,7558"/>
 <path fill="none" stroke="rgb(179,179,179)" stroke-linejoin="round" d="M 15751,4614 L 2771,4614"/>
 <path fill="none" stroke="rgb(179,179,179)" stroke-linejoin="round" d="M 15751,1671 L 2771,1671"/>
 <path fill="none" stroke="rgb(179,179,179)" stroke-linejoin="round" d="M 2771,13594 L 2771,13444"/>
 <path fill="none" stroke="rgb(179,179,179)" stroke-linejoin="round" d="M 2771,13594 L 2771,13444"/>
 <path fill="none" stroke="rgb(179,179,179)" stroke-linejoin="round" d="M 7098,13594 L 7098,13444"/>
 <path fill="none" stroke="rgb(179,179,179)" stroke-linejoin="round" d="M 7098,13594 L 7098,13444"/>
 <path fill="none" stroke="rgb(179,179,179)" stroke-linejoin="round" d="M 11424,13594 L 11424,13444"/>
 <path fill="none" stroke="rgb(179,179,179)" stroke-linejoin="round" d="M 11424,13594 L 11424,13444"/>
 <path fill="none" stroke="rgb(179,179,179)" stroke-linejoin="round" d="M 15751,13594 L 15751,13444"/>
 <path fill="none" stroke="rgb(179,179,179)" stroke-linejoin="round" d="M 15751,13594 L 15751,13444"/>
 <path fill="none" stroke="rgb(179,179,179)" stroke-linejoin="round" d="M 2771,13444 L 15751,13444"/>
 <path fill="none" stroke="rgb(179,179,179)" stroke-linejoin="round" d="M 2621,13444 L 2771,13444"/>
 <path fill="none" stroke="rgb(179,179,179)" stroke-linejoin="round" d="M 2621,13444 L 2771,13444"/>
 <path fill="none" stroke="rgb(179,179,179)" stroke-linejoin="round" d="M 2621,10500 L 2771,10500"/>
 <path fill="none" stroke="rgb(179,179,179)" stroke-linejoin="round" d="M 2621,10500 L 2771,10500"/>
 <path fill="none" stroke="rgb(179,179,179)" stroke-linejoin="round" d="M 2621,7558 L 2771,7558"/>
 <path fill="none" stroke="rgb(179,179,179)" stroke-linejoin="round" d="M 2621,7558 L 2771,7558"/>
 <path fill="none" stroke="rgb(179,179,179)" stroke-linejoin="round" d="M 2621,4614 L 2771,4614"/>
 <path fill="none" stroke="rgb(179,179,179)" stroke-linejoin="round" d="M 2621,4614 L 2771,4614"/>
 <path fill="none" stroke="rgb(179,179,179)" stroke-linejoin="round" d="M 2621,1671 L 2771,1671"/>
 <path fill="none" stroke="rgb(179,179,179)" stroke-linejoin="round" d="M 2621,1671 L 2771,1671"/>
 <path fill="none" stroke="rgb(179,179,179)" stroke-linejoin="round" d="M 2771,13444 L 2771,1671"/>
 <path fill="none" stroke="rgb(131,202,255)" stroke-width="80" stroke-linejoin="round" d="M 2771,12220 L 7097,9751 11424,6941 15751,3884"/>
 <path fill="rgb(131,202,255)" stroke="none" d="M 2646,12220 L 2896,12345 2896,12095 2646,12220 Z"/>
 <path fill="none" stroke="rgb(131,202,255)" stroke-linejoin="round" d="M 2646,12220 L 2896,12345 2896,12095 2646,12220 Z"/>
 <path fill="rgb(131,202,255)" stroke="none" d="M 6972,9751 L 7222,9876 7222,9626 6972,9751 Z"/>
 <path fill="none" stroke="rgb(131,202,255)" stroke-linejoin="round" d="M 6972,9751 L 7222,9876 7222,9626 6972,9751 Z"/>
 <path fill="rgb(131,202,255)" stroke="none" d="M 11299,6941 L 11549,7066 11549,6816 11299,6941 Z"/>
 <path fill="none" stroke="rgb(131,202,255)" stroke-linejoin="round" d="M 11299,6941 L 11549,7066 11549,6816 11299,6941 Z"/>
 <path fill="rgb(131,202,255)" stroke="none" d="M 15626,3884 L 15876,4009 15876,3759 15626,3884 Z"/>
 <path fill="none" stroke="rgb(131,202,255)" stroke-linejoin="round" d="M 15626,3884 L 15876,4009 15876,3759 15626,3884 Z"/>
 <path fill="none" stroke="rgb(87,157,28)" stroke-width="80" stroke-linejoin="round" d="M 2771,13351 L 7097,10451 11424,6702 15751,3571"/>
 <path fill="rgb(87,157,28)" stroke="none" d="M 2646,13476 L 2896,13476 2771,13226 2646,13476 Z"/>
 <path fill="none" stroke="rgb(87,157,28)" stroke-linejoin="round" d="M 2646,13476 L 2896,13476 2771,13226 2646,13476 Z"/>
 <path fill="rgb(87,157,28)" stroke="none" d="M 6972,10576 L 7222,10576 7097,10326 6972,10576 Z"/>
 <path fill="none" stroke="rgb(87,157,28)" stroke-linejoin="round" d="M 6972,10576 L 7222,10576 7097,10326 6972,10576 Z"/>
 <path fill="rgb(87,157,28)" stroke="none" d="M 11299,6827 L 11549,6827 11424,6577 11299,6827 Z"/>
 <path fill="none" stroke="rgb(87,157,28)" stroke-linejoin="round" d="M 11299,6827 L 11549,6827 11424,6577 11299,6827 Z"/>
 <path fill="rgb(87,157,28)" stroke="none" d="M 15626,3696 L 15876,3696 15751,3446 15626,3696 Z"/>
 <path fill="none" stroke="rgb(87,157,28)" stroke-linejoin="round" d="M 15626,3696 L 15876,3696 15751,3446 15626,3696 Z"/>
 <path fill="none" stroke="rgb(0,69,134)" stroke-width="80" stroke-linejoin="round" d="M 2771,13317 L 7097,10408 11424,6692 15751,3568"/>
 <path fill="rgb(0,69,134)" stroke="none" d="M 2646,13192 L 2646,13442 2896,13442 2896,13192 2646,13192 Z"/>
 <path fill="none" stroke="rgb(0,69,134)" stroke-linejoin="round" d="M 2646,13192 L 2646,13442 2896,13442 2896,13192 2646,13192 Z"/>
 <path fill="rgb(0,69,134)" stroke="none" d="M 6972,10283 L 6972,10533 7222,10533 7222,10283 6972,10283 Z"/>
 <path fill="none" stroke="rgb(0,69,134)" stroke-linejoin="round" d="M 6972,10283 L 6972,10533 7222,10533 7222,10283 6972,10283 Z"/>
 <path fill="rgb(0,69,134)" stroke="none" d="M 11299,6567 L 11299,6817 11549,6817 11549,6567 11299,6567 Z"/>
 <path fill="none" stroke="rgb(0,69,134)" stroke-linejoin="round" d="M 11299,6567 L 11299,6817 11549,6817 11549,6567 11299,6567 Z"/>
 <path fill="rgb(0,69,134)" stroke="none" d="M 15626,3443 L 15626,3693 15876,3693 15876,3443 15626,3443 Z"/>
 <path fill="none" stroke="rgb(0,69,134)" stroke-linejoin="round" d="M 15626,3443 L 15626,3693 15876,3693 15876,3443 15626,3443 Z"/>
 <path fill="none" stroke="rgb(255,211,32)" stroke-width="80" stroke-linejoin="round" d="M 2771,12200 L 7097,9768 11424,6923 15751,3437"/>
 <path fill="rgb(255,211,32)" stroke="none" d="M 2646,12075 L 2771,12325 2896,12075 2646,12075 Z"/>
 <path fill="none" stroke="rgb(255,211,32)" stroke-linejoin="round" d="M 2646,12075 L 2771,12325 2896,12075 2646,12075 Z"/>
 <path fill="rgb(255,211,32)" stroke="none" d="M 6972,9643 L 7097,9893 7222,9643 6972,9643 Z"/>
 <path fill="none" stroke="rgb(255,211,32)" stroke-linejoin="round" d="M 6972,9643 L 7097,9893 7222,9643 6972,9643 Z"/>
 <path fill="rgb(255,211,32)" stroke="none" d="M 11299,6798 L 11424,7048 11549,6798 11299,6798 Z"/>
 <path fill="none" stroke="rgb(255,211,32)" stroke-linejoin="round" d="M 11299,6798 L 11424,7048 11549,6798 11299,6798 Z"/>
 <path fill="rgb(255,211,32)" stroke="none" d="M 15626,3312 L 15751,3562 15876,3312 15626,3312 Z"/>
 <path fill="none" stroke="rgb(255,211,32)" stroke-linejoin="round" d="M 15626,3312 L 15751,3562 15876,3312 15626,3312 Z"/>
 <path fill="none" stroke="rgb(126,0,33)" stroke-width="80" stroke-linejoin="round" d="M 2771,12883 L 7097,9252 11424,5666 15751,2414"/>
 <path fill="rgb(126,0,33)" stroke="none" d="M 2646,12758 L 2646,13008 2896,12883 2646,12758 Z"/>
 <path fill="none" stroke="rgb(126,0,33)" stroke-linejoin="round" d="M 2646,12758 L 2646,13008 2896,12883 2646,12758 Z"/>
 <path fill="rgb(126,0,33)" stroke="none" d="M 6972,9127 L 6972,9377 7222,9252 6972,9127 Z"/>
 <path fill="none" stroke="rgb(126,0,33)" stroke-linejoin="round" d="M 6972,9127 L 6972,9377 7222,9252 6972,9127 Z"/>
 <path fill="rgb(126,0,33)" stroke="none" d="M 11299,5541 L 11299,5791 11549,5666 11299,5541 Z"/>
 <path fill="none" stroke="rgb(126,0,33)" stroke-linejoin="round" d="M 11299,5541 L 11299,5791 11549,5666 11299,5541 Z"/>
 <path fill="rgb(126,0,33)" stroke="none" d="M 15626,2289 L 15626,2539 15876,2414 15626,2289 Z"/>
 <path fill="none" stroke="rgb(126,0,33)" stroke-linejoin="round" d="M 15626,2289 L 15626,2539 15876,2414 15626,2289 Z"/>
 <path fill="none" stroke="rgb(49,64,4)" stroke-width="80" stroke-linejoin="round" d="M 2771,11550 L 7097,8882 11424,5736 15751,2348"/>
 <path fill="rgb(49,64,4)" stroke="none" d="M 2646,11425 L 2646,11675 2896,11425 2896,11675 2646,11425 Z"/>
 <path fill="none" stroke="rgb(49,64,4)" stroke-linejoin="round" d="M 2646,11425 L 2646,11675 2896,11425 2896,11675 2646,11425 Z"/>
 <path fill="rgb(49,64,4)" stroke="none" d="M 6972,8757 L 6972,9007 7222,8757 7222,9007 6972,8757 Z"/>
 <path fill="none" stroke="rgb(49,64,4)" stroke-linejoin="round" d="M 6972,8757 L 6972,9007 7222,8757 7222,9007 6972,8757 Z"/>
 <path fill="rgb(49,64,4)" stroke="none" d="M 11299,5611 L 11299,5861 11549,5611 11549,5861 11299,5611 Z"/>
 <path fill="none" stroke="rgb(49,64,4)" stroke-linejoin="round" d="M 11299,5611 L 11299,5861 11549,5611 11549,5861 11299,5611 Z"/>
 <path fill="rgb(49,64,4)" stroke="none" d="M 15626,2223 L 15626,2473 15876,2223 15876,2473 15626,2223 Z"/>
 <path fill="none" stroke="rgb(49,64,4)" stroke-linejoin="round" d="M 15626,2223 L 15626,2473 15876,2223 15876,2473 15626,2223 Z"/>
 <path fill="none" stroke="rgb(255,66,14)" stroke-width="80" stroke-linejoin="round" d="M 2771,12831 L 7097,9245 11424,5658 15751,2261"/>
 <path fill="rgb(255,66,14)" stroke="none" d="M 2646,12831 L 2771,12956 2896,12831 2771,12706 2646,12831 Z"/>
 <path fill="none" stroke="rgb(255,66,14)" stroke-linejoin="round" d="M 2646,12831 L 2771,12956 2896,12831 2771,12706 2646,12831 Z"/>
 <path fill="rgb(255,66,14)" stroke="none" d="M 6972,9245 L 7097,9370 7222,9245 7097,9120 6972,9245 Z"/>
 <path fill="none" stroke="rgb(255,66,14)" stroke-linejoin="round" d="M 6972,9245 L 7097,9370 7222,9245 7097,9120 6972,9245 Z"/>
 <path fill="rgb(255,66,14)" stroke="none" d="M 11299,5658 L 11424,5783 11549,5658 11424,5533 11299,5658 Z"/>
 <path fill="none" stroke="rgb(255,66,14)" stroke-linejoin="round" d="M 11299,5658 L 11424,5783 11549,5658 11424,5533 11299,5658 Z"/>
 <path fill="rgb(255,66,14)" stroke="none" d="M 15626,2261 L 15751,2386 15876,2261 15751,2136 15626,2261 Z"/>
 <path fill="none" stroke="rgb(255,66,14)" stroke-linejoin="round" d="M 15626,2261 L 15751,2386 15876,2261 15751,2136 15626,2261 Z"/>
 <path fill="none" stroke="rgb(174,207,0)" stroke-width="80" stroke-linejoin="round" d="M 2771,11549 L 7097,8813 11424,5737 15751,2262"/>
 <path fill="rgb(174,207,0)" stroke="none" d="M 2646,11674 L 2896,11674 2646,11424 2896,11424 2646,11674 Z"/>
 <path fill="none" stroke="rgb(174,207,0)" stroke-linejoin="round" d="M 2646,11674 L 2896,11674 2646,11424 2896,11424 2646,11674 Z"/>
 <path fill="rgb(174,207,0)" stroke="none" d="M 6972,8938 L 7222,8938 6972,8688 7222,8688 6972,8938 Z"/>
 <path fill="none" stroke="rgb(174,207,0)" stroke-linejoin="round" d="M 6972,8938 L 7222,8938 6972,8688 7222,8688 6972,8938 Z"/>
 <path fill="rgb(174,207,0)" stroke="none" d="M 11299,5862 L 11549,5862 11299,5612 11549,5612 11299,5862 Z"/>
 <path fill="none" stroke="rgb(174,207,0)" stroke-linejoin="round" d="M 11299,5862 L 11549,5862 11299,5612 11549,5612 11299,5862 Z"/>
 <path fill="rgb(174,207,0)" stroke="none" d="M 15626,2387 L 15876,2387 15626,2137 15876,2137 15626,2387 Z"/>
 <path fill="none" stroke="rgb(174,207,0)" stroke-linejoin="round" d="M 15626,2387 L 15876,2387 15626,2137 15876,2137 15626,2387 Z"/>
 <text class="TextShape"><tspan class="TextParagraph" font-family="Liberation Sans, sans-serif" font-size="353px" font-weight="400"><tspan class="TextPosition" x="2493" y="13985"><tspan fill="rgb(0,0,0)" stroke="none">100</tspan></tspan></tspan></text>
 <text class="TextShape"><tspan class="TextParagraph" font-family="Liberation Sans, sans-serif" font-size="353px" font-weight="400"><tspan class="TextPosition" x="6727" y="13985"><tspan fill="rgb(0,0,0)" stroke="none">1000</tspan></tspan></tspan></text>
 <text class="TextShape"><tspan class="TextParagraph" font-family="Liberation Sans, sans-serif" font-size="353px" font-weight="400"><tspan class="TextPosition" x="10962" y="13985"><tspan fill="rgb(0,0,0)" stroke="none">10000</tspan></tspan></tspan></text>
 <text class="TextShape"><tspan class="TextParagraph" font-family="Liberation Sans, sans-serif" font-size="353px" font-weight="400"><tspan class="TextPosition" x="15196" y="13985"><tspan fill="rgb(0,0,0)" stroke="none">100000</tspan></tspan></tspan></text>
 <text class="TextShape"><tspan class="TextParagraph" font-family="Liberation Sans, sans-serif" font-size="353px" font-weight="400"><tspan class="TextPosition" x="1780" y="13564"><tspan fill="rgb(0,0,0)" stroke="none">1000</tspan></tspan></tspan></text>
 <text class="TextShape"><tspan class="TextParagraph" font-family="Liberation Sans, sans-serif" font-size="353px" font-weight="400"><tspan class="TextPosition" x="1595" y="10620"><tspan fill="rgb(0,0,0)" stroke="none">10000</tspan></tspan></tspan></text>
 <text class="TextShape"><tspan class="TextParagraph" font-family="Liberation Sans, sans-serif" font-size="353px" font-weight="400"><tspan class="TextPosition" x="1410" y="7677"><tspan fill="rgb(0,0,0)" stroke="none">100000</tspan></tspan></tspan></text>
 <text class="TextShape"><tspan class="TextParagraph" font-family="Liberation Sans, sans-serif" font-size="353px" font-weight="400"><tspan class="TextPosition" x="1225" y="4733"><tspan fill="rgb(0,0,0)" stroke="none">1000000</tspan></tspan></tspan></text>
 <text class="TextShape"><tspan class="TextParagraph" font-family="Liberation Sans, sans-serif" font-size="353px" font-weight="400"><tspan class="TextPosition" x="1039" y="1790"><tspan fill="rgb(0,0,0)" stroke="none">10000000</tspan></tspan></tspan></text>
 <text class="TextShape"><tspan class="TextParagraph" font-family="Liberation Sans, sans-serif" font-size="459px" font-weight="400"><tspan class="TextPosition" x="10480" y="975"><tspan fill="rgb(0,0,0)" stroke="none">Timings</tspan></tspan></tspan></text>
 <path fill="none" stroke="rgb(174,207,0)" stroke-width="80" stroke-linejoin="round" d="M 17245,6079 L 18045,6079"/>
 <path fill="rgb(174,207,0)" stroke="none" d="M 17539,6185 L 17750,6185 17539,5974 17750,5974 17539,6185 Z"/>
 <path fill="none" stroke="rgb(174,207,0)" stroke-linejoin="round" d="M 17539,6185 L 17750,6185 17539,5974 17750,5974 17539,6185 Z"/>
 <path fill="none" stroke="rgb(255,66,14)" stroke-width="80" stroke-linejoin="round" d="M 17245,6524 L 18045,6524"/>
 <path fill="rgb(255,66,14)" stroke="none" d="M 17539,6524 L 17645,6630 17750,6524 17645,6419 17539,6524 Z"/>
 <path fill="none" stroke="rgb(255,66,14)" stroke-linejoin="round" d="M 17539,6524 L 17645,6630 17750,6524 17645,6419 17539,6524 Z"/>
 <path fill="none" stroke="rgb(49,64,4)" stroke-width="80" stroke-linejoin="round" d="M 17245,6969 L 18045,6969"/>
 <path fill="rgb(49,64,4)" stroke="none" d="M 17539,6864 L 17539,7075 17750,6864 17750,7075 17539,6864 Z"/>
 <path fill="none" stroke="rgb(49,64,4)" stroke-linejoin="round" d="M 17539,6864 L 17539,7075 17750,6864 17750,7075 17539,6864 Z"/>
 <path fill="none" stroke="rgb(126,0,33)" stroke-width="80" stroke-linejoin="round" d="M 17245,7414 L 18045,7414"/>
 <path fill="rgb(126,0,33)" stroke="none" d="M 17539,7309 L 17539,7520 17750,7414 17539,7309 Z"/>
 <path fill="none" stroke="rgb(126,0,33)" stroke-linejoin="round" d="M 17539,7309 L 17539,7520 17750,7414 17539,7309 Z"/>
 <path fill="none" stroke="rgb(255,211,32)" stroke-width="80" stroke-linejoin="round" d="M 17245,7858 L 18045,7858"/>
 <path fill="rgb(255,211,32)" stroke="none" d="M 17539,7753 L 17645,7964 17750,7753 17539,7753 Z"/>
 <path fill="none" stroke="rgb(255,211,32)" stroke-linejoin="round" d="M 17539,7753 L 17645,7964 17750,7753 17539,7753 Z"/>
 <path fill="none" stroke="rgb(0,69,134)" stroke-width="80" stroke-linejoin="round" d="M 17245,8303 L 18045,8303"/>
 <path fill="rgb(0,69,134)" stroke="none" d="M 17539,8198 L 17539,8409 17750,8409 17750,8198 17539,8198 Z"/>
 <path fill="none" stroke="rgb(0,69,134)" stroke-linejoin="round" d="M 17539,8198 L 17539,8409 17750,8409 17750,8198 17539,8198 Z"/>
 <path fill="none" stroke="rgb(87,157,28)" stroke-width="80" stroke-linejoin="round" d="M 17245,8748 L 18045,8748"/>
 <path fill="rgb(87,157,28)" stroke="none" d="M 17539,8854 L 17750,8854 17645,8643 17539,8854 Z"/>
 <path fill="none" stroke="rgb(87,157,28)" stroke-linejoin="round" d="M 17539,8854 L 17750,8854 17645,8643 17539,8854 Z"/>
 <path fill="none" stroke="rgb(131,202,255)" stroke-width="80" stroke-linejoin="round" d="M 17245,9193 L 18045,9193"/>
 <path fill="rgb(131,202,255)" stroke="none" d="M 17539,9193 L 17750,9299 17750,9088 17539,9193 Z"/>
 <path fill="none" stroke="rgb(131,202,255)" stroke-linejoin="round" d="M 17539,9193 L 17750,9299 17750,9088 17539,9193 Z"/>
 <text class="TextShape"><tspan class="TextParagraph" font-family="Liberation Sans, sans-serif" font-size="353px" font-weight="400"><tspan class="TextPosition" x="18145" y="6198"><tspan fill="rgb(0,0,0)" stroke="none">low_sip_hash</tspan></tspan></tspan></text>
 <text class="TextShape"><tspan class="TextParagraph" font-family="Liberation Sans, sans-serif" font-size="353px" font-weight="400"><tspan class="TextPosition" x="18145" y="6643"><tspan fill="rgb(0,0,0)" stroke="none">random_sort_search</tspan></tspan></tspan></text>
 <text class="TextShape"><tspan class="TextParagraph" font-family="Liberation Sans, sans-serif" font-size="353px" font-weight="400"><tspan class="TextPosition" x="18145" y="7088"><tspan fill="rgb(0,0,0)" stroke="none">sip_hash</tspan></tspan></tspan></text>
 <text class="TextShape"><tspan class="TextParagraph" font-family="Liberation Sans, sans-serif" font-size="353px" font-weight="400"><tspan class="TextPosition" x="18145" y="7533"><tspan fill="rgb(0,0,0)" stroke="none">low_k_sort_search</tspan></tspan></tspan></text>
 <text class="TextShape"><tspan class="TextParagraph" font-family="Liberation Sans, sans-serif" font-size="353px" font-weight="400"><tspan class="TextPosition" x="18145" y="7977"><tspan fill="rgb(0,0,0)" stroke="none">random_radix_sort_search</tspan></tspan></tspan></text>
 <text class="TextShape"><tspan class="TextParagraph" font-family="Liberation Sans, sans-serif" font-size="353px" font-weight="400"><tspan class="TextPosition" x="18145" y="8422"><tspan fill="rgb(0,0,0)" stroke="none">random_hash</tspan></tspan></tspan></text>
 <text class="TextShape"><tspan class="TextParagraph" font-family="Liberation Sans, sans-serif" font-size="353px" font-weight="400"><tspan class="TextPosition" x="18145" y="8867"><tspan fill="rgb(0,0,0)" stroke="none">low_k_hash</tspan></tspan></tspan></text>
 <text class="TextShape"><tspan class="TextParagraph" font-family="Liberation Sans, sans-serif" font-size="353px" font-weight="400"><tspan class="TextPosition" x="18145" y="9312"><tspan fill="rgb(0,0,0)" stroke="none">low_k_radix_sort_search</tspan></tspan></tspan></text>
 <text class="TextShape"><tspan class="TextParagraph" font-family="Liberation Sans, sans-serif" font-size="318px" font-weight="400"><tspan class="TextPosition" x="8687" y="14705"><tspan fill="rgb(0,0,0)" stroke="none">log n</tspan></tspan></tspan></text>
 <text class="TextShape" transform="translate(811,8337) rotate(-90) translate(-811,-8337)"><tspan class="TextParagraph" font-family="Liberation Sans, sans-serif" font-size="318px" font-weight="400"><tspan class="TextPosition" x="811" y="8337"><tspan fill="rgb(0,0,0)" stroke="none">log time</tspan></tspan></tspan></text>
</svg>
